<?xml version="1.0" encoding="utf-8"?>
<!-- Generator: Adobe Illustrator 17.1.0, SVG Export Plug-In . SVG Version: 6.00 Build 0)  -->
<!DOCTYPE svg PUBLIC "-//W3C//DTD SVG 1.1//EN" "http://www.w3.org/Graphics/SVG/1.1/DTD/svg11.dtd">
<svg version="1.1" id="Layer_1" xmlns="http://www.w3.org/2000/svg" xmlns:xlink="http://www.w3.org/1999/xlink" x="0px" y="0px"
	 viewBox="0 0 171.4 123.4" enable-background="new 0 0 171.4 123.4" xml:space="preserve">
<path fill="#FFFFFF" d="M171.4,16.6c0,6.6-5.4,12-12,12H12c-6.6,0-12-5.4-12-12V12C0,5.4,5.4,0,12,0h147.4c6.6,0,12,5.4,12,12V16.6z
	"/>
<path fill="#FFFFFF" d="M171.4,63.3c0,6.6-5.4,12-12,12H12c-6.6,0-12-5.4-12-12v-4.6c0-6.6,5.4-12,12-12h147.4c6.6,0,12,5.4,12,12
	V63.3z"/>
<path fill="#FFFFFF" d="M171.4,111.4c0,6.6-5.4,12-12,12H12c-6.6,0-12-5.4-12-12v-4.6c0-6.6,5.4-12,12-12h147.4c6.6,0,12,5.4,12,12
	V111.4z"/>
</svg>
