<?xml version="1.0" encoding="utf-8"?>
<!-- Generator: Adobe Illustrator 18.1.1, SVG Export Plug-In . SVG Version: 6.00 Build 0)  -->
<!DOCTYPE svg PUBLIC "-//W3C//DTD SVG 1.1//EN" "http://www.w3.org/Graphics/SVG/1.1/DTD/svg11.dtd">
<svg version="1.1" id="Layer_1" xmlns="http://www.w3.org/2000/svg" xmlns:xlink="http://www.w3.org/1999/xlink" x="0px" y="0px"
	 viewBox="0 0 1008 612" enable-background="new 0 0 1008 612" xml:space="preserve">
<path fill="#E1D6C3" d="M929,82.3c0,32.7-26.8,59.5-59.5,59.5h-731c-32.7,0-59.5-26.8-59.5-59.5V59.5C79,26.8,105.8,0,138.5,0h731
	C902.2,0,929,26.8,929,59.5V82.3z"/>
<path fill="#E1D6C3" d="M929,313.9c0,32.7-26.8,59.5-59.5,59.5h-731c-32.7,0-59.5-26.8-59.5-59.5v-22.8c0-32.7,26.8-59.5,59.5-59.5
	h731c32.7,0,59.5,26.8,59.5,59.5V313.9z"/>
<path fill="#E1D6C3" d="M929,552.5c0,32.7-26.8,59.5-59.5,59.5h-731c-32.7,0-59.5-26.8-59.5-59.5v-22.8c0-32.7,26.8-59.5,59.5-59.5
	h731c32.7,0,59.5,26.8,59.5,59.5V552.5z"/>
</svg>
