<?xml version="1.0" encoding="utf-8"?>
<!-- Generator: Adobe Illustrator 18.1.1, SVG Export Plug-In . SVG Version: 6.00 Build 0)  -->
<!DOCTYPE svg PUBLIC "-//W3C//DTD SVG 1.1//EN" "http://www.w3.org/Graphics/SVG/1.1/DTD/svg11.dtd">
<svg version="1.1" id="Layer_1" xmlns="http://www.w3.org/2000/svg" xmlns:xlink="http://www.w3.org/1999/xlink" x="0px" y="0px"
	 width="400px" height="400px" viewBox="0 0 400 400" style="enable-background:new 0 0 400 400;" xml:space="preserve">
<g>
	<path style="fill:#ED2547;" d="M-0.5,0v399.5H399V0H-0.5z M188.5,97.3H205v80.2h-16.5V97.3z M125,299.6l-20.6-32.2l-8.6,9.2v22.9
		H79.3v-80.2h16.5v36.3l7.3-10l20.4-26.4h20.3L115.4,255l29.3,44.5H125z M123.2,177.5H106L78.2,97.3h18.3l18.1,60.3l18.2-60.3h18.4
		L123.2,177.5z M217.9,299l-18.1-60.3L181.6,299h-18.4l27.9-80.2h17.2l27.8,80.2H217.9z M260.7,97.3l18.1,60.3l18.2-60.3h18.4
		l-27.9,80.2h-17.2l-27.8-80.2H260.7z M290.1,270.5v29.1h-16.8v-29.1L247,219.4h18.1l16.6,36.1l16.7-36.1h18.1L290.1,270.5z"/>
</g>
</svg>
