<?xml version="1.0" encoding="utf-8"?>
<!-- Generator: Adobe Illustrator 18.1.1, SVG Export Plug-In . SVG Version: 6.00 Build 0)  -->
<!DOCTYPE svg PUBLIC "-//W3C//DTD SVG 1.1//EN" "http://www.w3.org/Graphics/SVG/1.1/DTD/svg11.dtd">
<svg version="1.1" id="Layer_1" xmlns="http://www.w3.org/2000/svg" xmlns:xlink="http://www.w3.org/1999/xlink" x="0px" y="0px"
	 width="400px" height="400px" viewBox="0 0 400 400" style="enable-background:new 0 0 400 400;" xml:space="preserve">
<g>
	<path d="M0.1,0v398.5h398.5V0H0.1z M188.6,97.1h16.5v80h-16.5V97.1z M125.3,298.8l-20.5-32.1l-8.6,9.2v22.8H79.7v-80h16.5v36.2
		l7.2-9.9l20.4-26.3h20.3l-28.4,35.5l29.2,44.4H125.3z M123.5,177h-17.2l-27.8-80h18.3l18,60.2L133,97.1h18.3L123.5,177z
		 M217.9,298.2l-18-60.2l-18.1,60.2h-18.3l27.9-80h17.2l27.8,80H217.9z M260.6,97.1l18,60.2l18.1-60.2h18.4l-27.9,80H270l-27.8-80
		H260.6z M289.9,269.8v29h-16.8v-29l-26.3-51H265l16.5,36l16.7-36h18L289.9,269.8z"/>
</g>
</svg>
