<?xml version="1.0" encoding="utf-8"?>
<!-- Generator: Adobe Illustrator 18.1.1, SVG Export Plug-In . SVG Version: 6.00 Build 0)  -->
<!DOCTYPE svg PUBLIC "-//W3C//DTD SVG 1.1//EN" "http://www.w3.org/Graphics/SVG/1.1/DTD/svg11.dtd">
<svg version="1.1" id="Layer_1" xmlns="http://www.w3.org/2000/svg" xmlns:xlink="http://www.w3.org/1999/xlink" x="0px" y="0px"
	 width="400px" height="400px" viewBox="0 0 400 400" style="enable-background:new 0 0 400 400;" xml:space="preserve">
<g>
	<rect x="0.1" style="fill:#ED2547;" width="398.5" height="398.5"/>
	<g>
		<path style="fill:#FFFFFF;" d="M114.9,157.2L133,97.1h18.3l-27.9,80h-17.2l-27.7-80h18.3L114.9,157.2z"/>
		<path style="fill:#FFFFFF;" d="M205.1,177h-16.5v-80h16.5V177z"/>
		<path style="fill:#FFFFFF;" d="M278.6,157.2l18.1-60.2h18.3l-27.9,80H270l-27.7-80h18.3L278.6,157.2z"/>
	</g>
	<path style="fill:#FFFFFF;" d="M104.7,266.8l-8.6,9.2v22.9H79.7v-80h16.5v36.3l7.3-9.9l20.4-26.3h20.3l-28.4,35.5l29.2,44.4h-19.6
		L104.7,266.8z"/>
	<path style="fill:#FFFFFF;" d="M281.5,254.9l16.6-36h18l-26.3,51v29h-16.8v-29l-26.3-51H265L281.5,254.9z"/>
	<g>
		<path style="fill:#FFFFFF;" d="M199.9,238.1l-18.1,60.2h-18.3l27.9-80h17.2l27.7,80h-18.3L199.9,238.1z"/>
	</g>
</g>
</svg>
